<svg xmlns="http://www.w3.org/2000/svg" viewBox="0 0 32 32">
  <defs>
    <linearGradient id="grad" x1="0%" y1="0%" x2="100%" y2="100%">
      <stop offset="0%" style="stop-color:#38bdf8"/>
      <stop offset="100%" style="stop-color:#a855f7"/>
    </linearGradient>
  </defs>
  <rect width="32" height="32" rx="6" fill="url(#grad)"/>
  <!-- Cpu icon simplified -->
  <rect x="10" y="10" width="12" height="12" rx="2" fill="none" stroke="white" stroke-width="1.5"/>
  <rect x="13" y="13" width="6" height="6" rx="1" fill="white"/>
  <!-- Pins -->
  <line x1="12" y1="7" x2="12" y2="10" stroke="white" stroke-width="1.5" stroke-linecap="round"/>
  <line x1="16" y1="7" x2="16" y2="10" stroke="white" stroke-width="1.5" stroke-linecap="round"/>
  <line x1="20" y1="7" x2="20" y2="10" stroke="white" stroke-width="1.5" stroke-linecap="round"/>
  <line x1="12" y1="22" x2="12" y2="25" stroke="white" stroke-width="1.5" stroke-linecap="round"/>
  <line x1="16" y1="22" x2="16" y2="25" stroke="white" stroke-width="1.5" stroke-linecap="round"/>
  <line x1="20" y1="22" x2="20" y2="25" stroke="white" stroke-width="1.5" stroke-linecap="round"/>
  <line x1="7" y1="12" x2="10" y2="12" stroke="white" stroke-width="1.5" stroke-linecap="round"/>
  <line x1="7" y1="16" x2="10" y2="16" stroke="white" stroke-width="1.5" stroke-linecap="round"/>
  <line x1="7" y1="20" x2="10" y2="20" stroke="white" stroke-width="1.5" stroke-linecap="round"/>
  <line x1="22" y1="12" x2="25" y2="12" stroke="white" stroke-width="1.5" stroke-linecap="round"/>
  <line x1="22" y1="16" x2="25" y2="16" stroke="white" stroke-width="1.5" stroke-linecap="round"/>
  <line x1="22" y1="20" x2="25" y2="20" stroke="white" stroke-width="1.5" stroke-linecap="round"/>
</svg>
